<?xml version="1.0" encoding="UTF-8"?>
<svg width="24px" height="24px" viewBox="0 0 24 24" version="1.1" xmlns="http://www.w3.org/2000/svg" xmlns:xlink="http://www.w3.org/1999/xlink">
    <title>icon/image/选中/水印管理</title>
    <g id="icon/image/选中/水印管理" stroke="none" stroke-width="1" fill="none" fill-rule="evenodd">
        <g id="m-水印" fill="#000000" fill-rule="nonzero" opacity="0">
            <rect id="矩形" x="0" y="0" width="24" height="24"></rect>
        </g>
        <g id="去除水印" transform="translate(-0.466412, -0.482652)">
            <rect id="矩形" fill="#000000" fill-rule="nonzero" opacity="0" x="0.466412291" y="0.482652335" width="24" height="24"></rect>
            <g id="编组">
                <path d="M22.5307755,0.81476973 L21.4051298,1.94041611 C20.7472174,1.43134811 19.922525,1.12788641 19.0281861,1.12788641 L16.0981262,1.12788641 C13.9522834,1.12788641 12.2065205,2.87365019 12.2065205,5.01945978 L12.2065205,11.1389959 L4.69883665,18.6467182 C4.43918324,18.3587526 4.28082112,17.9777762 4.28082112,17.5604133 L4.28082112,6.47835742 C4.28082112,5.8125421 4.69808074,5.20386637 5.31905679,4.96376329 L10.3596038,3.01483272 C10.943678,2.78902313 11.234083,2.13245047 11.0082391,1.54837603 C10.7824297,0.964301584 10.1259261,0.673965149 9.54178322,0.899740381 L4.50123618,2.84863659 C3.76546564,3.13309758 3.1408475,3.62739106 2.69482913,4.27801955 C2.24881076,4.92864804 2.01307145,5.68953566 2.01307145,6.47835742 L2.01307145,17.5604133 C2.01307145,18.6029787 2.42524588,19.5510561 3.09511525,20.2504061 L0.798503737,22.5470188 C0.355715142,22.989842 0.355715142,23.7077461 0.798503737,24.1505693 C1.01991521,24.3719465 1.3100797,24.4826523 1.60024418,24.4826523 C1.89040866,24.4826523 2.18060751,24.3719465 2.40198462,24.1505693 L5.17031528,21.3822372 C5.41232099,21.4286747 5.65818757,21.4520407 5.90460837,21.452021 L9.94282524,21.452021 C10.5690583,21.452021 11.0766829,20.9443961 11.0766829,20.3181627 C11.0766829,19.6919294 10.5690583,19.1843044 9.94282524,19.1843044 L7.36824681,19.1843044 L12.2064518,14.3460969 L12.2064518,23.0080181 C12.2064518,23.6342515 12.7140764,24.1418764 13.3403095,24.1418764 C13.9665425,24.1418764 14.4741671,23.6342515 14.4741671,23.0080181 L14.4741671,12.0783803 L20.6519734,5.90057073 L20.6519734,16.8099365 L19.1979212,15.3558492 C18.7550982,14.9130604 18.0371602,14.913026 17.594406,15.3558148 C17.151583,15.798638 17.151583,16.5165421 17.5943716,16.9593309 L19.8071464,19.1721412 C20.3304732,19.6954684 21.1105329,19.8505664 21.7941804,19.5673424 C22.4778965,19.2841183 22.9196887,18.6229415 22.9196887,17.8828757 L22.9196887,5.01949414 C22.9196887,4.60171891 22.8532378,4.19923358 22.7308499,3.8217275 L24.1342908,2.41828584 C24.5771137,1.97546264 24.5771137,1.25755856 24.1343251,0.81476973 C23.6914678,0.371946537 22.9736328,0.371946537 22.5307755,0.81476973 Z M14.4742358,5.01949414 C14.4742358,4.1240897 15.2026878,3.3956369 16.0981262,3.3956369 L19.0281861,3.3956369 C19.2862672,3.39545379 19.540625,3.45719632 19.7699009,3.57568025 L14.4742358,8.87131375 L14.4742358,5.01949414 Z M6.31111352,10.003832 C5.6848805,10.003832 5.17725586,10.5114569 5.17725586,11.1376903 C5.17725586,11.7639236 5.6848805,12.2715485 6.31111352,12.2715485 L9.95069353,12.2715485 C10.5769265,12.2715485 11.0845512,11.7639236 11.0845512,11.1376903 C11.0845512,10.5114569 10.5769265,10.003832 9.95069353,10.003832 L6.31111352,10.003832 Z" id="形状" fill="#231916" fill-rule="nonzero"></path>
                <path d="M-2.92383539,11.3547444 L27.8754733,11.3536581 C28.4949037,11.3536363 28.9970691,11.8557662 28.9970909,12.4751967 C28.9970909,12.4752099 28.9970909,12.475223 28.9970909,12.4752362 C28.9970909,13.094695 28.494932,13.5968716 27.8754733,13.5968934 L-2.92383539,13.5979797 C-3.54326587,13.5980016 -4.04543119,13.0958717 -4.04545304,12.4764412 C-4.04545304,12.476428 -4.04545304,12.4764148 -4.04545304,12.4764017 C-4.04545304,11.8569429 -3.54329411,11.3547663 -2.92383539,11.3547444 Z" id="矩形" fill="#C61823" transform="translate(12.475819, 12.475819) rotate(-45.000000) translate(-12.475819, -12.475819) "></path>
            </g>
        </g>
    </g>
</svg>