<?xml version="1.0" encoding="UTF-8"?>
<svg width="24px" height="24px" viewBox="0 0 24 24" version="1.1" xmlns="http://www.w3.org/2000/svg" xmlns:xlink="http://www.w3.org/1999/xlink">
    <title>icon/image/选中/轮播图</title>
    <g id="icon/image/选中/轮播图" stroke="none" stroke-width="1" fill="none" fill-rule="evenodd">
        <g id="003_轮播图">
            <rect id="矩形" fill="#000000" fill-rule="nonzero" opacity="0" x="0" y="0" width="24" height="24"></rect>
            <g id="编组-2" transform="translate(0.000000, 2.000000)">
                <g id="编组">
                    <path d="M17.3617745,0 L6.7741934,0 C5.18465334,0.00252899405 3.8969233,1.29901069 3.89519684,2.89856276 L3.89519684,16.1014372 C3.8969233,17.7009893 5.18465334,18.997471 6.7741934,19 L17.3617745,19 C18.9513146,18.997471 20.2390446,17.7009893 20.2407711,16.1014372 L20.2407711,2.89856276 C20.2390446,1.29901069 18.9513146,0.00252899405 17.3617745,0 L17.3617745,0 Z M18.4101854,16.1014372 C18.4095567,16.6837966 17.9404892,17.1556899 17.3617745,17.1561641 L6.7741934,17.1561641 C6.19559001,17.1555318 5.72669603,16.6836847 5.72606762,16.1014372 L5.72606762,2.89856276 C5.72669603,2.31631531 6.19559001,1.84446823 6.7741934,1.84383586 L17.3617745,1.84383586 C17.9404892,1.84431014 18.4095567,2.31620345 18.4101854,2.89856276 L18.4101854,16.1014372 Z M2.13729864,4.66638485 C2.63865099,4.6537967 3.03676579,4.2379069 3.03052375,3.73327909 C3.02428172,3.22865129 2.61600309,2.82283583 2.1144947,2.82283583 C0.928690179,2.82283583 0,4.01869018 0,5.54527613 L0,13.9564147 C0,15.4830007 0.928690179,16.678855 2.1144947,16.678855 C2.61600309,16.678855 3.02428172,16.2730396 3.03052375,15.7684118 C3.03676579,15.263784 2.63865099,14.8478942 2.13729864,14.835306 C2.04209222,14.7779371 1.83201098,14.4624083 1.83201098,13.9564147 L1.83201098,5.54527613 C1.83144088,5.04071681 2.04152212,4.72346689 2.13729864,4.66638485 Z M21.8860749,2.82283583 C21.3845665,2.82283583 20.9762879,3.22865129 20.9700458,3.73327909 C20.9638038,4.2379069 21.3619186,4.6537967 21.8632709,4.66638485 C21.9584774,4.72375374 22.1685586,5.04100365 22.1685586,5.54527613 L22.1685586,13.9564147 C22.1685586,14.4624083 21.9584774,14.7779371 21.8627008,14.835306 C21.3613485,14.8478942 20.9632337,15.263784 20.9694757,15.7684118 C20.9757178,16.2730396 21.3839964,16.678855 21.8855048,16.678855 C23.0713093,16.678855 23.9999997,15.4830007 23.9999997,13.9564147 L23.9999997,5.54527613 C24.0005696,4.01869018 23.0718794,2.82283583 21.8860749,2.82283583 Z" id="形状" fill="#231916" fill-rule="nonzero"></path>
                    <path d="M9.29713651,5.73162537 C9.45668712,6.11924054 9.80961397,6.3917564 10.2229729,6.44651888 C10.6363319,6.50128135 11.0473239,6.32997071 11.3011323,5.99711802 C11.5549407,5.66426533 11.6130058,5.22043882 11.4534552,4.83282366 C11.2939046,4.44520849 10.9409778,4.17269262 10.5276188,4.11793015 C10.1142598,4.06316767 9.70326779,4.23447831 9.44945943,4.56733101 C9.19565107,4.9001837 9.1375859,5.3440102 9.29713651,5.73162537 L9.29713651,5.73162537 Z" id="路径" fill="#C61823"></path>
                </g>
                <path d="M17.5986504,9.05596485 C17.209361,8.73080531 16.6318723,8.78460374 16.3085179,9.17615266 L13.6099574,12.4461789 C13.456601,12.5979196 13.2416739,12.7645762 13.0398591,12.7645762 L13.0261767,12.7645762 C12.8081141,12.7571183 12.5891964,12.5623509 12.5204995,12.4854766 L12.5093826,12.4702739 L10.8774761,10.7449047 C10.4499024,10.2509587 9.75153193,9.69132522 8.8382344,9.78254174 C7.70972476,9.89555844 7.03415824,10.9448353 6.89990008,11.1723029 L6.33407749,12.0463178 C6.06410272,12.4726882 6.18572538,13.0383146 6.60670892,13.3142358 C7.02769246,13.5901569 7.59096592,13.4734252 7.86935229,13.052568 L8.44771705,12.1590477 L8.46025921,12.1412633 L8.47650701,12.1125789 C8.59280707,11.9149431 8.85419716,11.6335487 9.02038082,11.618346 C9.09990954,11.6111749 9.27407458,11.6983756 9.5049644,11.9682961 L9.51978696,11.98522 L11.1277493,13.6864942 C11.2879469,13.872943 11.9421348,14.5585012 12.9281198,14.6078384 C12.9628958,14.6095595 12.9990971,14.6107068 13.0364385,14.6107068 C13.5295736,14.6107068 14.2287992,14.4431897 14.9399968,13.7168997 L14.9685017,13.6882152 L17.7192262,10.3542227 C17.8743418,10.1659825 17.9487832,9.92343878 17.9261702,9.67996096 C17.9035572,9.43648315 17.7857426,9.21202086 17.5986504,9.05596485 L17.5986504,9.05596485 Z" id="路径" fill="#C61823"></path>
            </g>
        </g>
    </g>
</svg>