<?xml version="1.0" encoding="UTF-8"?>
<svg width="24px" height="24px" viewBox="0 0 24 24" version="1.1" xmlns="http://www.w3.org/2000/svg" xmlns:xlink="http://www.w3.org/1999/xlink">
    <title>icon/image/默认/水印管理</title>
    <g id="icon/image/默认/水印管理" stroke="none" stroke-width="1" fill="none" fill-rule="evenodd">
        <g id="m-水印" fill="#000000" fill-rule="nonzero" opacity="0">
            <rect id="矩形" x="0" y="0" width="24" height="24"></rect>
        </g>
        <g id="去除水印" fill="#666666" fill-rule="nonzero">
            <rect id="矩形" opacity="0" x="0" y="0" width="24" height="24"></rect>
            <path d="M22.0643632,0.332117394 L20.9387175,1.45776378 C20.2808051,0.948695777 19.4561127,0.645234073 18.5617739,0.645234073 L15.6317139,0.645234073 C13.4858711,0.645234073 11.7401082,2.39099785 11.7401082,4.53680744 L11.7401082,10.6563436 L4.23242436,18.1640659 C3.97277095,17.8761002 3.81440883,17.4951238 3.81440883,17.0777609 L3.81440883,5.99570508 C3.81440883,5.32988976 4.23166845,4.72121403 4.8526445,4.48111095 L9.89319154,2.53218039 C10.4772657,2.30637079 10.7676707,1.64979814 10.5418268,1.06572369 C10.3160174,0.481649248 9.65951378,0.191312813 9.07537093,0.417088046 L4.03482389,2.36598425 C3.29905335,2.65044524 2.67443521,3.14473873 2.22841684,3.79536722 C1.78239847,4.44599571 1.54665916,5.20688332 1.54665916,5.99570508 L1.54665916,17.0777609 C1.54665916,18.1203264 1.95883359,19.0684037 2.62870296,19.7677538 L0.332091447,22.0643665 C-0.110697149,22.5071897 -0.110697149,23.2250938 0.332091447,23.667917 C0.553502924,23.8892942 0.843667407,24 1.13383189,24 C1.42399637,24 1.71419521,23.8892942 1.93557233,23.667917 L4.70390299,20.8995848 C4.9459087,20.9460224 5.19177528,20.9693884 5.43819608,20.9693686 L9.47641295,20.9693686 C10.102646,20.9693686 10.6102706,20.4617437 10.6102706,19.8355104 C10.6102706,19.209277 10.102646,18.7016521 9.47641295,18.7016521 L6.90183452,18.7016521 L11.7400395,13.8634445 L11.7400395,22.5253658 C11.7400395,23.1515991 12.2476641,23.6592241 12.8738972,23.6592241 C13.5001302,23.6592241 14.0077548,23.1515991 14.0077548,22.5253658 L14.0077548,11.595728 L20.1855611,5.4179184 L20.1855611,16.3272842 L18.7315089,14.8731969 C18.288686,14.430408 17.5707479,14.4303737 17.1279937,14.8731625 C16.6851707,15.3159857 16.6851707,16.0338898 17.1279593,16.4766786 L19.3407341,18.6894889 C19.8640609,19.212816 20.6441206,19.3679141 21.3277681,19.0846901 C22.0114842,18.801466 22.4532764,18.1402892 22.4532764,17.4002233 L22.4532764,4.5368418 C22.4532764,4.11906657 22.3868255,3.71658125 22.2644376,3.33907516 L23.6678785,1.9356335 C24.1107014,1.49281031 24.1107014,0.774906228 23.6679128,0.332117394 C23.2250555,-0.110705798 22.5072206,-0.110705798 22.0643632,0.332117394 Z M14.0078235,4.5368418 C14.0078235,3.64143737 14.7362756,2.91298456 15.6317139,2.91298456 L18.5617739,2.91298456 C18.8198549,2.91280146 19.0742127,2.97454398 19.3034886,3.09302792 L14.0078235,8.38866142 L14.0078235,4.5368418 Z M5.84470123,9.52117967 C5.21846821,9.52117967 4.71084357,10.0288046 4.71084357,10.6550379 C4.71084357,11.2812713 5.21846821,11.7888962 5.84470123,11.7888962 L9.48428124,11.7888962 C10.1105143,11.7888962 10.6181389,11.2812713 10.6181389,10.6550379 C10.6181389,10.0288046 10.1105143,9.52117967 9.48428124,9.52117967 L5.84470123,9.52117967 Z" id="形状"></path>
        </g>
    </g>
</svg>