<?xml version="1.0" encoding="UTF-8"?>
<svg width="24px" height="24px" viewBox="0 0 24 24" version="1.1" xmlns="http://www.w3.org/2000/svg" xmlns:xlink="http://www.w3.org/1999/xlink">
    <title>icon/image/默认/用户管理</title>
    <g id="icon/image/默认/用户管理" stroke="none" stroke-width="1" fill="none" fill-rule="evenodd">
        <g id="用户管理" fill="#666666" fill-rule="nonzero">
            <rect id="矩形" opacity="0" x="0" y="0" width="24" height="24"></rect>
            <path d="M12.556552,12.4017338 L12.8100564,12.4110893 C13.6509247,12.4732502 14.4453961,12.8430762 15.0454949,13.4577819 C15.7056036,14.1339581 16.0764488,15.0510499 16.0764488,16.0073075 L16.0764488,16.0073075 L16.0764488,20.9294477 L16.0685285,21.0500436 C16.011078,21.4838354 15.6480731,21.8181818 15.2088331,21.8181818 C14.7296622,21.8181818 14.3412174,21.420282 14.3412174,20.9294477 L14.3412174,20.9294477 L14.3412174,16.0073075 L14.3330477,15.8312487 C14.246569,14.9042141 13.4842164,14.179202 12.556552,14.179202 L12.556552,14.179202 L4.61080596,14.179202 L4.43893078,14.1875706 C3.53392468,14.2761542 2.82614056,15.057063 2.82614056,16.0073075 L2.82614056,16.0073075 L2.82614056,20.9294477 L2.81820385,21.0500211 C2.76070016,21.4837311 2.39771731,21.8180078 1.95852483,21.8180078 C1.47937636,21.8180078 1.09090909,21.4201691 1.09090909,20.9294477 L1.09090909,20.9294477 L1.09090909,16.0073075 L1.09688434,15.7954526 C1.20394368,13.9027581 2.73624865,12.4017338 4.61080596,12.4017338 L4.61080596,12.4017338 L12.556552,12.4017338 Z M20.4801031,12.4017338 L20.6869238,12.4078545 C22.5346435,12.5175197 24,14.0871221 24,16.0073075 L24,16.0073075 L24,20.9294477 L23.9920797,21.0500436 C23.9346292,21.4838354 23.5716243,21.8181818 23.1323843,21.8181818 C22.6532133,21.8181818 22.2647685,21.420282 22.2647685,20.9294477 L22.2647685,20.9294477 L22.2647685,16.0073075 L22.2565988,15.8312487 C22.1701202,14.9042141 21.4077676,14.179202 20.4801031,14.179202 L20.4801031,14.179202 L17.1508799,14.179202 L17.0197639,14.1690357 C16.7616754,14.1287007 16.5322242,13.9705845 16.3993549,13.7348743 C16.2443408,13.459879 16.2443408,13.1210568 16.3993549,12.8460616 C16.5543515,12.5710974 16.8408175,12.4017338 17.1508799,12.4017338 L17.1508799,12.4017338 L20.4801031,12.4017338 Z M16.2885103,1.10116946 L16.5261008,1.11974447 C18.9989908,1.36308303 20.9102761,3.49484391 20.9102761,6.06640297 C20.9102761,8.72091554 18.8736933,10.9067982 16.285081,11.0306666 C15.8173186,11.0303964 15.4289335,10.6324735 15.4289335,10.1416623 C15.4289335,9.65088109 15.8172973,9.25300328 16.2964164,9.25292815 L16.2964164,9.25292815 L16.5016064,9.23313201 C18.0586451,9.030955 19.2342242,7.68217495 19.2342242,6.06640297 C19.2342242,4.38038003 17.9541986,2.98507042 16.311417,2.88035658 C15.8172973,2.87980265 15.4289335,2.48192484 15.4289335,1.99114367 C15.4289335,1.54123333 15.7552849,1.16937508 16.1786755,1.11052309 L16.1786755,1.11052309 L16.2885103,1.10116946 Z M5.14200415,2.54663912 C6.530907,1.12392939 8.62022148,0.699433475 10.4340915,1.47142068 L10.4340915,1.47142068 L10.6670457,1.57796624 C12.3483707,2.40170144 13.4282582,4.14701334 13.4241919,6.07154844 C13.4183555,8.80777361 11.2543596,11.0244427 8.58315099,11.0304212 C6.61894961,11.0347763 4.84597755,9.82555844 4.09233539,7.96753963 C3.33869239,6.10951871 3.7531013,3.96934885 5.14200415,2.54663912 Z M8.58460933,2.87983378 C7.32307555,2.87489209 6.1830567,3.64948103 5.69691297,4.84191872 C5.21076705,6.03436182 5.47441096,7.40940445 6.36472788,8.32492715 C7.2550448,9.24044985 8.59638329,9.51582832 9.7623631,9.02246591 C10.9283473,8.52910162 11.6889362,7.3643307 11.6889362,6.07208673 C11.6889362,4.31388185 10.3010289,2.88666994 8.58460933,2.87983378 Z" id="形状结合"></path>
        </g>
    </g>
</svg>