<?xml version="1.0" encoding="UTF-8"?>
<svg width="24px" height="24px" viewBox="0 0 24 24" version="1.1" xmlns="http://www.w3.org/2000/svg" xmlns:xlink="http://www.w3.org/1999/xlink">
    <title>icon/image/默认/知识库</title>
    <defs>
        <linearGradient x1="100%" y1="50%" x2="0%" y2="50%" id="linearGradient-1">
            <stop stop-color="#E53549" offset="0%"></stop>
            <stop stop-color="#C61823" offset="100%"></stop>
        </linearGradient>
        <linearGradient x1="100%" y1="50%" x2="0%" y2="50%" id="linearGradient-2">
            <stop stop-color="#666666" offset="0%"></stop>
            <stop stop-color="#666666" offset="100%"></stop>
        </linearGradient>
    </defs>
    <g id="icon/image/默认/知识库" stroke="none" stroke-width="1" fill="none" fill-rule="evenodd">
        <g id="编组" transform="translate(1.000000, 1.000000)" fill-rule="nonzero">
            <g id="知识库11备份">
                <path d="M18.2561403,-0.1 C18.862555,-0.1 19.4187144,0.156716132 19.823088,0.568310685 C20.1819621,0.933593234 20.4210477,1.42068098 20.4697473,1.95730757 L20.4789474,2.16072353 L20.4780091,12.3160508 C20.9457795,12.3352627 21.3275472,12.4881824 21.6024448,12.7212668 C21.88284,12.9590125 22.0534843,13.2806627 22.0917642,13.6353852 L22.1,13.7892857 L22.1,20.625 C22.1,21.0251587 21.9347725,21.3939033 21.6708951,21.6624929 C21.4394403,21.8980808 21.132395,22.0563562 20.7952994,22.092244 L20.6491228,22.1 L1.35087719,22.1 C0.956874948,22.1 0.593624672,21.9317362 0.329104959,21.6624929 C0.0982122017,21.4274771 -0.0571517146,21.11578 -0.0923849943,20.7734527 L-0.1,20.625 L-0.1,13.8285714 C-0.1,13.4284127 0.0652275202,13.0596681 0.32910495,12.7910785 C0.537541668,12.5789197 0.807281704,12.4294606 1.10506516,12.3756214 L1.25613987,12.3568226 L1.6754386,4.87142858 C1.6754386,4.25507042 1.9275646,3.68996785 2.33129793,3.27902498 C2.71867896,2.88472643 3.24535714,2.6325632 3.82207118,2.61206669 C3.95643912,1.53585013 4.20779923,0.97615759 4.60849092,0.568310685 C4.97242716,0.197875587 5.4593099,-0.0471079894 5.99512339,-0.0924003538 L6.1754386,-0.1 L18.2561403,-0.1 Z M20.5518445,13.7321429 L15.4799261,13.7321429 L11.7653366,17.4351071 L11.6718287,17.5199236 C11.4795617,17.6743972 11.2557635,17.7392857 11,17.7392857 C10.7058768,17.7392857 10.4526426,17.6132544 10.2421205,17.4418293 L10.2421205,17.4418293 L6.63642105,13.7336572 L1.2605934,13.9249798 L1.44812836,20.7204434 L20.7393359,20.5260306 L20.5518445,13.7321429 Z M18.2561403,1.27857143 L6.1754386,1.27857143 L6.05676345,1.28645469 C5.86308991,1.3124647 5.69135088,1.40149321 5.56168452,1.53347503 C5.40545592,1.69249344 5.31052632,1.91350335 5.31052632,2.16071429 L5.31052632,2.16071429 L5.31000511,12.353029 L7.22119567,12.3535837 L11.0007099,16.2394479 L14.895188,12.3142885 L19.1210005,12.3140067 L19.1210526,2.16071378 L19.1132975,2.03945764 C19.0877067,1.84155537 19.0000849,1.66599037 18.8698944,1.53347503 C18.7142948,1.37509684 18.4981105,1.27857143 18.2561403,1.27857143 L18.2561403,1.27857143 Z M3.80012132,3.99465542 C3.59805029,4.01695913 3.41872618,4.10755761 3.28449153,4.24418932 C3.12826292,4.40320772 3.03333333,4.62421763 3.03333334,4.87142857 L3.03333334,4.87142857 L3.0330044,12.353 L3.95018847,12.353 Z" id="形状结合" stroke="#666666" stroke-width="0.2"></path>
                <path d="M18.2561403,0 C19.4140351,0 20.3789474,0.982142864 20.3789474,2.16071429 L20.378,12.414 L20.6491228,12.4142857 C21.3824562,12.4142857 22,13.0428571 22,13.7892857 L22,20.625 C22,21.3714286 21.3824561,22 20.6491228,22 L1.35087719,22 C0.617543845,22 0,21.3714286 0,20.625 L0,13.8285714 C0,13.0821428 0.617543867,12.4535714 1.35087719,12.4535714 L1.775,12.453 L1.7754386,4.87142858 C1.7754386,3.69285715 2.74035089,2.71071428 3.89824561,2.71071428 L4.052,2.71 L4.05263158,2.16071429 C4.05263158,0.982142864 5.01754387,0 6.1754386,0 L18.2561403,0 Z M6.67719297,13.6321429 L1.35087719,13.6321429 C1.23508771,13.6321429 1.15789474,13.7107143 1.15789474,13.8285714 L1.15789474,20.6642857 C1.15789474,20.7428571 1.27368421,20.8214286 1.35087719,20.8214286 L20.6491228,20.8214286 C20.7649123,20.8214286 20.8421053,20.7428572 20.8421053,20.625 L20.8421053,13.8285714 C20.8421053,13.7107143 20.7649123,13.6321429 20.6491228,13.6321429 L15.4385965,13.6321429 L11.6947368,17.3642857 C11.5017544,17.5607143 11.2701754,17.6392857 11,17.6392857 C10.7298246,17.6392857 10.4982456,17.5214286 10.3052632,17.3642857 L6.67719297,13.6321429 Z M18.2561403,1.17857143 L6.1754386,1.17857143 C5.63508771,1.17857143 5.21052632,1.6107143 5.21052632,2.16071429 L5.21,12.453 L7.17894737,12.4535714 L11,16.3821428 L14.9368421,12.4142857 L19.221,12.414 L19.2210526,2.16071429 C19.2210526,1.6107143 18.7964912,1.17857143 18.2561403,1.17857143 Z M4.052,3.889 L3.89824561,3.88928571 C3.35789474,3.88928571 2.93333332,4.32142856 2.93333334,4.87142858 L2.933,12.453 L4.052,12.453 L4.052,3.889 Z" id="形状结合" fill="#666666"></path>
            </g>
            <path d="M16.8280702,8.52142857 C17.2480992,8.52142857 17.6070176,8.88675622 17.6070176,9.31071428 C17.6070176,9.73467234 17.2480992,10.1 16.8280702,10.1 L16.8280702,10.1 L7.60350876,10.1 C7.18347979,10.1 6.8245614,9.73467234 6.8245614,9.31071428 C6.8245614,8.88675622 7.18347979,8.52142857 7.60350876,8.52142857 L7.60350876,8.52142857 Z M16.8280702,4.78928572 C17.2480992,4.78928572 17.6070176,5.15461337 17.6070176,5.57857143 C17.6070176,6.0025295 17.2480992,6.36785715 16.8280702,6.36785715 L16.8280702,6.36785715 L7.60350876,6.36785715 C7.18347979,6.36785715 6.8245614,6.0025295 6.8245614,5.57857143 C6.8245614,5.15461337 7.18347979,4.78928572 7.60350876,4.78928572 L7.60350876,4.78928572 Z" id="形状结合" fill="url(#linearGradient-2)"></path>
        </g>
    </g>
</svg>