<?xml version="1.0" encoding="UTF-8"?>
<svg width="24px" height="24px" viewBox="0 0 24 24" version="1.1" xmlns="http://www.w3.org/2000/svg" xmlns:xlink="http://www.w3.org/1999/xlink">
    <title>icon/toggle/check-box/checked/filled/24</title>
    <defs>
        <path d="M19,3 C20.1045695,3 21,3.8954305 21,5 L21,19 C21,20.1045695 20.1045695,21 19,21 L5,21 C3.8954305,21 3,20.1045695 3,19 L3,5 C3,3.8954305 3.8954305,3 5,3 L19,3 Z M16.65375,8.8425 C16.3237562,8.51458162 15.791003,8.51433909 15.4607108,8.8419569 L15.4607108,8.8419569 L10.5,13.7625 L8.53762393,11.8173882 C8.20791652,11.4905815 7.67658127,11.4900738 7.34625,11.81625 L7.34625,11.81625 C7.01761241,12.1474749 7.0197212,12.6725634 7.34488664,12.9951275 L7.34488664,12.9951275 L9.79605428,15.4266858 C10.1857947,15.8133083 10.814345,15.8134492 11.2042586,15.4270014 L11.2042586,15.4270014 L16.6529745,10.0267186 C16.6544792,10.0252273 16.6559782,10.0237302 16.6574715,10.0222275 C16.9822166,9.69542704 16.9805504,9.16724507 16.65375,8.8425 Z" id="path-1"></path>
    </defs>
    <g id="icon/toggle/check-box/checked/filled/24" stroke="none" stroke-width="1" fill="none" fill-rule="evenodd">
        <mask id="mask-2" fill="white">
            <use xlink:href="#path-1"></use>
        </mask>
        <use id="形状结合" fill="#1A1A1A" xlink:href="#path-1"></use>
    </g>
</svg>