<?xml version="1.0" encoding="UTF-8"?>
<svg width="16px" height="16px" viewBox="0 0 16 16" version="1.1" xmlns="http://www.w3.org/2000/svg" xmlns:xlink="http://www.w3.org/1999/xlink">
    <title>home_icon_search</title>
    <g id="页面-1" stroke="none" stroke-width="1" fill="none" fill-rule="evenodd">
        <g id="新增权限用户" transform="translate(-1250.000000, -166.000000)" fill="#999999">
            <g id="Group-2" transform="translate(902.000000, 158.000000)">
                <g id="home_icon_search" transform="translate(348.000000, 8.000000)">
                    <path d="M12.626563,11.5128483 L16,14.8854977 L14.8854977,16 L11.5128483,12.626563 C10.2579409,13.6325459 8.69705707,14.1797028 7.0887073,14.1774146 C3.17574087,14.1774146 0,11.0016737 0,7.0887073 C0,3.17574087 3.17574087,0 7.0887073,0 C11.0016737,0 14.1774146,3.17574087 14.1774146,7.0887073 C14.1797028,8.69705707 13.6325459,10.2579409 12.626563,11.5128483 Z M11.0465689,10.9284237 C12.0461655,9.90047113 12.6044045,8.52253955 12.6021531,7.0887073 C12.6021531,4.04213843 10.1344885,1.57526829 7.0887073,1.57526829 C4.04213843,1.57526829 1.57526829,4.04213843 1.57526829,7.0887073 C1.57526829,10.1344885 4.04213843,12.6021531 7.0887073,12.6021531 C8.52253955,12.6044045 9.90047113,12.0461655 10.9284237,11.0465689 L11.0465689,10.9284237 L11.0465689,10.9284237 Z" id="形状"></path>
                </g>
            </g>
        </g>
    </g>
</svg>