<?xml version="1.0" encoding="UTF-8"?>
<svg width="20px" height="20px" viewBox="0 0 20 20" version="1.1" xmlns="http://www.w3.org/2000/svg" xmlns:xlink="http://www.w3.org/1999/xlink">
    <title>ic_close</title>
    <g id="页面-1" stroke="none" stroke-width="1" fill="none" fill-rule="evenodd">
        <g id="修改/增加轮播图" transform="translate(-980.000000, -176.000000)" fill="#666666">
            <g id="编组-8" transform="translate(400.000000, 156.000000)">
                <g id="ic_close" transform="translate(580.000000, 20.000000)">
                    <path d="M17.2939011,2.70609821 C16.9039529,2.31615041 16.2717223,2.31615071 15.8817745,2.7060989 C15.8817628,2.70611065 15.881751,2.7061224 15.8817393,2.70613415 L10,8.58846651 L10,8.58846651 L4.11826074,2.70613415 C3.72833241,2.3161665 3.0961018,2.31613462 2.70613415,2.70606296 C2.7061224,2.70607471 2.70611065,2.70608646 2.7060989,2.70609821 C2.31615124,3.09604548 2.31615094,3.72827523 2.70609821,4.11822289 C2.70611028,4.11823496 2.70612235,4.11824703 2.70613442,4.1182591 L8.58847293,10 L8.58847293,10 L2.70593555,15.8825247 C2.31614916,16.2723102 2.31614848,16.9042781 2.70593402,17.2940645 C2.70598897,17.2941195 2.70604393,17.2941744 2.70609889,17.2942294 C3.09609314,17.6840423 3.7282291,17.683969 4.11813291,17.2940656 L10,11.4122042 L10,11.4122042 L15.881871,17.2940695 C16.2717733,17.6839714 16.9039062,17.6840464 17.2939011,17.2942372 C17.683776,16.9045478 17.6839264,16.2725862 17.2942371,15.8827113 C17.2941811,15.8826553 17.2941252,15.8825993 17.2940692,15.8825433 L11.4115271,10 L11.4115271,10 L17.2938656,4.1182591 C17.6838329,3.72833145 17.683865,3.09610169 17.2939373,2.70613442 C17.2939252,2.70612235 17.2939132,2.70611028 17.2939011,2.70609821 Z" id="Path"></path>
                </g>
            </g>
        </g>
    </g>
</svg>