<?xml version="1.0" encoding="UTF-8"?>
<svg width="24px" height="24px" viewBox="0 0 24 24" version="1.1" xmlns="http://www.w3.org/2000/svg" xmlns:xlink="http://www.w3.org/1999/xlink">
    <title>icon/formatting/delete/24</title>
    <defs>
        <path d="M9.75,9 C10.1642136,9 10.5,9.33578644 10.5,9.75 L10.5,17.25 C10.5,17.6642136 10.1642136,18 9.75,18 C9.33578644,18 9,17.6642136 9,17.25 L9,9.75 C9,9.33578644 9.33578644,9 9.75,9 Z M14.25,9 C14.6642136,9 15,9.33578644 15,9.75 L15,17.25 C15,17.6642136 14.6642136,18 14.25,18 C13.8357864,18 13.5,17.6642136 13.5,17.25 L13.5,9.75 C13.5,9.33578644 13.8357864,9 14.25,9 Z M3,5.25 C3,5.66421356 3.33578644,6 3.75,6 L4.5,6 L4.5,6 L4.5,21 C4.5,21.8284271 5.17157288,22.5 6,22.5 L18,22.5 C18.8284271,22.5 19.5,21.8284271 19.5,21 L19.5,6 L20.25,6 C20.6642136,6 21,5.66421356 21,5.25 C21,4.83578644 20.6642136,4.5 20.25,4.5 L3.75,4.5 C3.33578644,4.5 3,4.83578644 3,5.25 Z M6,21 L6,6 L18,6 L18,21 L6,21 Z M9.75,1.5 L14.25,1.5 C14.6642136,1.5 15,1.83578644 15,2.25 C15,2.66421356 14.6642136,3 14.25,3 L9.75,3 C9.33578644,3 9,2.66421356 9,2.25 C9,1.83578644 9.33578644,1.5 9.75,1.5 Z" id="path-1"></path>
    </defs>
    <g id="icon/formatting/delete/24" stroke="none" stroke-width="1" fill="none" fill-rule="evenodd">
        <mask id="mask-2" fill="white">
            <use xlink:href="#path-1"></use>
        </mask>
        <use id="icon-color" fill="#1A1A1A" xlink:href="#path-1"></use>
    </g>
</svg>