<?xml version="1.0" encoding="UTF-8"?>
<svg width="24px" height="24px" viewBox="0 0 24 24" version="1.1" xmlns="http://www.w3.org/2000/svg" xmlns:xlink="http://www.w3.org/1999/xlink">
    <title>icon/status/plus/unfilled/24</title>
    <defs>
        <path d="M12,1.5 C14.7847731,1.5 17.4554892,2.60624682 19.4246212,4.5753788 C21.3937532,6.54451077 22.5,9.21522686 22.5,12 C22.5,17.7989899 17.7989899,22.5 12,22.5 C6.20101013,22.5 1.5,17.7989899 1.5,12 C1.5,6.20101013 6.20101013,1.5 12,1.5 Z M12,3 C7.02943725,3 3,7.02943725 3,12 C3,16.9705627 7.02943725,21 12,21 C14.3869484,21 16.6761336,20.0517884 18.363961,18.363961 C20.0517884,16.6761336 21,14.3869484 21,12 C21,7.02943725 16.9705627,3 12,3 Z M12,6.41860363 C12.4657002,6.41860363 12.8432248,6.79612825 12.8432248,7.26182847 L12.8432248,11.1567752 L16.7381715,11.1567752 C17.2038717,11.1567752 17.5813964,11.5342998 17.5813964,12 C17.5813964,12.4657002 17.2038717,12.8432248 16.7381715,12.8432248 L12.8432248,12.8432248 L12.8432248,16.7381715 C12.8432248,17.2038717 12.4657002,17.5813964 12,17.5813964 C11.5342998,17.5813964 11.1567752,17.2038717 11.1567752,16.7381715 L11.1567752,12.8432248 L7.26182847,12.8432248 C6.79612825,12.8432248 6.41860363,12.4657002 6.41860363,12 C6.41860363,11.5342998 6.79612825,11.1567752 7.26182847,11.1567752 L11.1567752,11.1567752 L11.1567752,7.26182847 C11.1567752,6.79612825 11.5342998,6.41860363 12,6.41860363 Z" id="path-1"></path>
    </defs>
    <g id="icon/status/plus/unfilled/24" stroke="none" stroke-width="1" fill="none" fill-rule="evenodd">
        <mask id="mask-2" fill="white">
            <use xlink:href="#path-1"></use>
        </mask>
        <use id="Combined-Shape" fill="#1A1A1A" xlink:href="#path-1"></use>
    </g>
</svg>