<?xml version="1.0" encoding="UTF-8"?>
<svg width="14px" height="14px" viewBox="0 0 14 14" version="1.1" xmlns="http://www.w3.org/2000/svg" xmlns:xlink="http://www.w3.org/1999/xlink">
    <title>icon/image/calendar/24</title>
    <defs>
        <polygon id="path-1" points="0 0 13.3333333 0 13.3333333 13.3333333 0 13.3333333"></polygon>
    </defs>
    <g id="页面-1" stroke="none" stroke-width="1" fill="none" fill-rule="evenodd">
        <g id="A02创建或编辑页面-大纲分析展开" transform="translate(-1287.000000, -87.000000)">
            <g id="编组-6" transform="translate(0.000000, 64.000000)">
                <g id="编组-2备份-2" transform="translate(1276.000000, 14.000000)">
                    <g id="编组" transform="translate(10.000000, 8.000000)">
                        <g id="baocun" transform="translate(1.333333, 1.333333)">
                            <g id="编组">
                                <mask id="mask-2" fill="white">
                                    <use xlink:href="#path-1"></use>
                                </mask>
                                <g id="Clip-2"></g>
                                <path d="M11.4281718,0 L1.90399594,0 C0.851776412,0 -0.00116559286,0.852867448 -0.00116559286,1.904995 L-0.00116559286,11.4283383 C-0.00116559286,12.4804659 0.851776412,13.3333333 1.90399594,13.3333333 L11.4281718,13.3333333 C12.4803913,13.3333333 13.3333333,12.4804659 13.3333333,11.4283383 L13.3333333,1.904995 C13.3333333,0.852867448 12.4803913,0 11.4281718,0 Z M3.84325107,4.73115522 L9.49431725,4.73115522 L9.49431725,0.983907483 L3.84325107,0.983907483 L3.84325107,4.73115522 Z M12.3816661,11.4309218 C12.3820541,11.9556064 11.9570207,12.3812826 11.4322708,12.3817488 L1.90621057,12.3817488 C1.65152853,12.3817488 1.41096959,12.283867 1.23090492,12.1037986 C1.05074311,11.923672 0.950502128,11.6855622 0.950502128,11.4309218 L0.950502128,1.90590797 C0.951492882,1.37877583 1.37903234,0.951817632 1.90621057,0.951584534 L2.85931586,0.951584534 L2.85931586,4.76347817 C2.85855822,5.28825991 3.28335854,5.71432456 3.80818615,5.71508213 L9.52565227,5.71508213 C10.051762,5.71508213 10.4783107,5.28946425 10.4783107,4.76347817 L10.4783107,0.951584534 L11.4295317,0.951584534 C11.9559522,0.952186704 12.3821901,1.37931972 12.3816661,1.90567487 L12.3816661,11.4309218 Z" id="Fill-1" fill="#666666" mask="url(#mask-2)"></path>
                            </g>
                            <path d="M7.62049073,3.82653998 C7.89215158,3.82653998 8.11244863,3.60633988 8.11244863,3.33462509 L8.11244863,2.38218586 C8.11244863,2.11047106 7.89215158,1.89019327 7.62049073,1.89019327 C7.34875218,1.89019327 7.12853284,2.11047106 7.12853284,2.38218586 L7.12853284,3.33462509 C7.12853284,3.60633988 7.34875218,3.82653998 7.62049073,3.82653998 Z" id="Fill-3" fill="#666666"></path>
                        </g>
                    </g>
                </g>
            </g>
        </g>
    </g>
</svg>